<mxfile host="app.diagrams.net" modified="2022-01-20T08:37:38.119Z" agent="5.0 (Macintosh; Intel Mac OS X 10_15_7) AppleWebKit/605.1.15 (KHTML, like Gecko) Version/15.2 Safari/605.1.15" etag="QvJ9Elcw8uWVdiiYpgVW" version="16.4.2" type="github">
  <diagram id="hDgSXtl1pIS-HQbCwnqq" name="Page-1">
    <mxGraphModel dx="946" dy="604" grid="1" gridSize="10" guides="1" tooltips="1" connect="1" arrows="1" fold="1" page="1" pageScale="1" pageWidth="827" pageHeight="1169" background="#ffffff" math="0" shadow="0">
      <root>
        <mxCell id="0" />
        <mxCell id="1" parent="0" />
        <mxCell id="KyNgDCiQDorarltKWVj6-1" value="" style="edgeStyle=orthogonalEdgeStyle;rounded=0;orthogonalLoop=1;jettySize=auto;html=1;exitX=0.5;exitY=1;exitDx=0;exitDy=0;endArrow=none;shadow=0;strokeColor=#56517e;fillColor=#d0cee2;" parent="1" source="KyNgDCiQDorarltKWVj6-3" target="KyNgDCiQDorarltKWVj6-31" edge="1">
          <mxGeometry relative="1" as="geometry">
            <mxPoint x="155" y="607" as="targetPoint" />
            <mxPoint x="155" y="137" as="sourcePoint" />
          </mxGeometry>
        </mxCell>
        <mxCell id="KyNgDCiQDorarltKWVj6-2" style="edgeStyle=orthogonalEdgeStyle;rounded=0;orthogonalLoop=1;jettySize=auto;html=1;exitX=0.5;exitY=1;exitDx=0;exitDy=0;startArrow=none;fillColor=#d0cee2;strokeColor=#56517e;endArrow=none;endFill=0;" parent="1" source="KyNgDCiQDorarltKWVj6-31" edge="1">
          <mxGeometry relative="1" as="geometry">
            <mxPoint x="155" y="607" as="targetPoint" />
          </mxGeometry>
        </mxCell>
        <mxCell id="KyNgDCiQDorarltKWVj6-3" value="订单中心" style="rounded=1;whiteSpace=wrap;html=1;fillColor=#fff2cc;strokeColor=#d6b656;" parent="1" vertex="1">
          <mxGeometry x="100" y="107" width="110" height="30" as="geometry" />
        </mxCell>
        <mxCell id="KyNgDCiQDorarltKWVj6-4" style="edgeStyle=orthogonalEdgeStyle;rounded=0;orthogonalLoop=1;jettySize=auto;html=1;exitX=0.5;exitY=1;exitDx=0;exitDy=0;startArrow=none;fillColor=#e1d5e7;strokeColor=#9673a6;startFill=0;endArrow=none;endFill=0;" parent="1" source="KyNgDCiQDorarltKWVj6-23" edge="1">
          <mxGeometry relative="1" as="geometry">
            <mxPoint x="395" y="607" as="targetPoint" />
          </mxGeometry>
        </mxCell>
        <mxCell id="KyNgDCiQDorarltKWVj6-5" value="支付中心" style="rounded=1;whiteSpace=wrap;html=1;fillColor=#d5e8d4;strokeColor=#82b366;" parent="1" vertex="1">
          <mxGeometry x="340" y="107" width="110" height="30" as="geometry" />
        </mxCell>
        <mxCell id="KyNgDCiQDorarltKWVj6-6" style="edgeStyle=orthogonalEdgeStyle;rounded=0;orthogonalLoop=1;jettySize=auto;html=1;exitX=0.5;exitY=1;exitDx=0;exitDy=0;startArrow=none;fillColor=#e1d5e7;strokeColor=#9673a6;startFill=0;endArrow=none;endFill=0;" parent="1" source="KyNgDCiQDorarltKWVj6-19" edge="1">
          <mxGeometry relative="1" as="geometry">
            <mxPoint x="625" y="607" as="targetPoint" />
            <Array as="points">
              <mxPoint x="625" y="607" />
            </Array>
          </mxGeometry>
        </mxCell>
        <mxCell id="KyNgDCiQDorarltKWVj6-7" value="3rd" style="rounded=1;whiteSpace=wrap;html=1;glass=0;fillColor=#f8cecc;strokeColor=#b85450;" parent="1" vertex="1">
          <mxGeometry x="570" y="107" width="110" height="30" as="geometry" />
        </mxCell>
        <mxCell id="KyNgDCiQDorarltKWVj6-8" value="" style="rounded=1;whiteSpace=wrap;html=1;shadow=0;fillColor=#fff2cc;strokeColor=#d6b656;" parent="1" vertex="1">
          <mxGeometry x="145" y="157" width="20" height="50" as="geometry" />
        </mxCell>
        <mxCell id="KyNgDCiQDorarltKWVj6-9" value="" style="endArrow=classic;html=1;rounded=0;exitX=1;exitY=1;exitDx=0;exitDy=0;entryX=0;entryY=0.25;entryDx=0;entryDy=0;fillColor=#1ba1e2;strokeColor=#006EAF;" parent="1" source="KyNgDCiQDorarltKWVj6-8" target="KyNgDCiQDorarltKWVj6-11" edge="1">
          <mxGeometry width="50" height="50" relative="1" as="geometry">
            <mxPoint x="410" y="357" as="sourcePoint" />
            <mxPoint x="380" y="207" as="targetPoint" />
          </mxGeometry>
        </mxCell>
        <mxCell id="KyNgDCiQDorarltKWVj6-10" value="发起支付" style="edgeLabel;html=1;align=center;verticalAlign=middle;resizable=0;points=[];" parent="KyNgDCiQDorarltKWVj6-9" vertex="1" connectable="0">
          <mxGeometry x="-0.0999" y="-2" relative="1" as="geometry">
            <mxPoint as="offset" />
          </mxGeometry>
        </mxCell>
        <mxCell id="KyNgDCiQDorarltKWVj6-11" value="" style="rounded=1;whiteSpace=wrap;html=1;arcSize=20;fillColor=#d5e8d4;strokeColor=#82b366;" parent="1" vertex="1">
          <mxGeometry x="385" y="196" width="20" height="50" as="geometry" />
        </mxCell>
        <mxCell id="KyNgDCiQDorarltKWVj6-12" value="" style="edgeStyle=orthogonalEdgeStyle;rounded=0;orthogonalLoop=1;jettySize=auto;html=1;exitX=0.5;exitY=1;exitDx=0;exitDy=0;endArrow=none;fillColor=#e1d5e7;strokeColor=#9673a6;" parent="1" source="KyNgDCiQDorarltKWVj6-5" target="KyNgDCiQDorarltKWVj6-11" edge="1">
          <mxGeometry relative="1" as="geometry">
            <mxPoint x="395" y="607" as="targetPoint" />
            <mxPoint x="395" y="137" as="sourcePoint" />
          </mxGeometry>
        </mxCell>
        <mxCell id="KyNgDCiQDorarltKWVj6-13" value="" style="endArrow=classic;html=1;rounded=0;exitX=1;exitY=0.25;exitDx=0;exitDy=0;entryX=1;entryY=0.75;entryDx=0;entryDy=0;fillColor=#1ba1e2;strokeColor=#006EAF;" parent="1" source="KyNgDCiQDorarltKWVj6-11" target="KyNgDCiQDorarltKWVj6-11" edge="1">
          <mxGeometry width="50" height="50" relative="1" as="geometry">
            <mxPoint x="400" y="377" as="sourcePoint" />
            <mxPoint x="440" y="237" as="targetPoint" />
            <Array as="points">
              <mxPoint x="440" y="209" />
              <mxPoint x="440" y="234" />
            </Array>
          </mxGeometry>
        </mxCell>
        <mxCell id="KyNgDCiQDorarltKWVj6-14" value="处理支付订单" style="edgeLabel;html=1;align=center;verticalAlign=middle;resizable=0;points=[];" parent="KyNgDCiQDorarltKWVj6-13" vertex="1" connectable="0">
          <mxGeometry x="0.0316" relative="1" as="geometry">
            <mxPoint as="offset" />
          </mxGeometry>
        </mxCell>
        <mxCell id="KyNgDCiQDorarltKWVj6-15" value="" style="endArrow=classic;html=1;rounded=0;exitX=1;exitY=1;exitDx=0;exitDy=0;entryX=0;entryY=0;entryDx=0;entryDy=0;fillColor=#1ba1e2;strokeColor=#006EAF;" parent="1" source="KyNgDCiQDorarltKWVj6-11" target="KyNgDCiQDorarltKWVj6-19" edge="1">
          <mxGeometry width="50" height="50" relative="1" as="geometry">
            <mxPoint x="400" y="347" as="sourcePoint" />
            <mxPoint x="450" y="297" as="targetPoint" />
          </mxGeometry>
        </mxCell>
        <mxCell id="KyNgDCiQDorarltKWVj6-16" value="调用支付" style="edgeLabel;html=1;align=center;verticalAlign=middle;resizable=0;points=[];" parent="KyNgDCiQDorarltKWVj6-15" vertex="1" connectable="0">
          <mxGeometry x="-0.1143" y="-2" relative="1" as="geometry">
            <mxPoint as="offset" />
          </mxGeometry>
        </mxCell>
        <mxCell id="KyNgDCiQDorarltKWVj6-17" style="rounded=0;orthogonalLoop=1;jettySize=auto;html=1;exitX=0;exitY=1;exitDx=0;exitDy=0;entryX=1;entryY=0;entryDx=0;entryDy=0;fillColor=#1ba1e2;strokeColor=#006EAF;" parent="1" source="KyNgDCiQDorarltKWVj6-19" target="KyNgDCiQDorarltKWVj6-23" edge="1">
          <mxGeometry relative="1" as="geometry" />
        </mxCell>
        <mxCell id="KyNgDCiQDorarltKWVj6-18" value="调用结果" style="edgeLabel;html=1;align=center;verticalAlign=middle;resizable=0;points=[];" parent="KyNgDCiQDorarltKWVj6-17" vertex="1" connectable="0">
          <mxGeometry x="0.181" y="-1" relative="1" as="geometry">
            <mxPoint as="offset" />
          </mxGeometry>
        </mxCell>
        <mxCell id="KyNgDCiQDorarltKWVj6-19" value="" style="rounded=1;whiteSpace=wrap;html=1;arcSize=20;fillColor=#f8cecc;strokeColor=#b85450;" parent="1" vertex="1">
          <mxGeometry x="615" y="246" width="20" height="61" as="geometry" />
        </mxCell>
        <mxCell id="KyNgDCiQDorarltKWVj6-20" value="" style="edgeStyle=orthogonalEdgeStyle;rounded=0;orthogonalLoop=1;jettySize=auto;html=1;exitX=0.5;exitY=1;exitDx=0;exitDy=0;endArrow=none;fillColor=#e1d5e7;strokeColor=#9673a6;" parent="1" source="KyNgDCiQDorarltKWVj6-7" target="KyNgDCiQDorarltKWVj6-19" edge="1">
          <mxGeometry relative="1" as="geometry">
            <mxPoint x="625" y="607" as="targetPoint" />
            <mxPoint x="625" y="137" as="sourcePoint" />
          </mxGeometry>
        </mxCell>
        <mxCell id="KyNgDCiQDorarltKWVj6-21" style="edgeStyle=elbowEdgeStyle;rounded=0;orthogonalLoop=1;jettySize=auto;html=1;exitX=0;exitY=1;exitDx=0;exitDy=0;entryX=0.75;entryY=0;entryDx=0;entryDy=0;fillColor=#1ba1e2;strokeColor=#006EAF;" parent="1" source="KyNgDCiQDorarltKWVj6-23" target="KyNgDCiQDorarltKWVj6-31" edge="1">
          <mxGeometry relative="1" as="geometry">
            <mxPoint x="170" y="367" as="targetPoint" />
            <Array as="points">
              <mxPoint x="300" y="367" />
            </Array>
          </mxGeometry>
        </mxCell>
        <mxCell id="KyNgDCiQDorarltKWVj6-22" value="等待支付状态响应" style="edgeLabel;html=1;align=center;verticalAlign=middle;resizable=0;points=[];" parent="KyNgDCiQDorarltKWVj6-21" vertex="1" connectable="0">
          <mxGeometry x="0.1733" relative="1" as="geometry">
            <mxPoint as="offset" />
          </mxGeometry>
        </mxCell>
        <mxCell id="KyNgDCiQDorarltKWVj6-23" value="" style="rounded=1;whiteSpace=wrap;html=1;fillColor=#d5e8d4;strokeColor=#82b366;" parent="1" vertex="1">
          <mxGeometry x="385" y="307" width="20" height="60" as="geometry" />
        </mxCell>
        <mxCell id="KyNgDCiQDorarltKWVj6-24" value="" style="edgeStyle=orthogonalEdgeStyle;rounded=0;orthogonalLoop=1;jettySize=auto;html=1;exitX=0.5;exitY=1;exitDx=0;exitDy=0;startArrow=none;endArrow=none;fillColor=#e1d5e7;strokeColor=#9673a6;" parent="1" source="KyNgDCiQDorarltKWVj6-11" target="KyNgDCiQDorarltKWVj6-23" edge="1">
          <mxGeometry relative="1" as="geometry">
            <mxPoint x="395" y="607" as="targetPoint" />
            <mxPoint x="395" y="246" as="sourcePoint" />
          </mxGeometry>
        </mxCell>
        <mxCell id="KyNgDCiQDorarltKWVj6-25" style="edgeStyle=orthogonalEdgeStyle;rounded=0;orthogonalLoop=1;jettySize=auto;html=1;exitX=1;exitY=0.25;exitDx=0;exitDy=0;entryX=1;entryY=0.75;entryDx=0;entryDy=0;fillColor=#1ba1e2;strokeColor=#006EAF;" parent="1" source="KyNgDCiQDorarltKWVj6-23" target="KyNgDCiQDorarltKWVj6-23" edge="1">
          <mxGeometry relative="1" as="geometry">
            <Array as="points">
              <mxPoint x="440" y="322" />
              <mxPoint x="440" y="352" />
            </Array>
          </mxGeometry>
        </mxCell>
        <mxCell id="KyNgDCiQDorarltKWVj6-26" value="支付状态更新" style="edgeLabel;html=1;align=center;verticalAlign=middle;resizable=0;points=[];" parent="KyNgDCiQDorarltKWVj6-25" vertex="1" connectable="0">
          <mxGeometry x="0.025" y="1" relative="1" as="geometry">
            <mxPoint as="offset" />
          </mxGeometry>
        </mxCell>
        <mxCell id="KyNgDCiQDorarltKWVj6-27" style="edgeStyle=elbowEdgeStyle;rounded=0;orthogonalLoop=1;jettySize=auto;html=1;exitX=1;exitY=0.25;exitDx=0;exitDy=0;entryX=1;entryY=0.75;entryDx=0;entryDy=0;elbow=vertical;fillColor=#1ba1e2;strokeColor=#006EAF;" parent="1" source="KyNgDCiQDorarltKWVj6-19" target="KyNgDCiQDorarltKWVj6-19" edge="1">
          <mxGeometry relative="1" as="geometry">
            <Array as="points">
              <mxPoint x="670" y="277" />
            </Array>
          </mxGeometry>
        </mxCell>
        <mxCell id="KyNgDCiQDorarltKWVj6-28" value="内部处理" style="edgeLabel;html=1;align=center;verticalAlign=middle;resizable=0;points=[];" parent="KyNgDCiQDorarltKWVj6-27" vertex="1" connectable="0">
          <mxGeometry x="0.3632" y="-3" relative="1" as="geometry">
            <mxPoint x="1" y="-12" as="offset" />
          </mxGeometry>
        </mxCell>
        <mxCell id="KyNgDCiQDorarltKWVj6-29" style="rounded=0;orthogonalLoop=1;jettySize=auto;html=1;exitX=1;exitY=1;exitDx=0;exitDy=0;entryX=0;entryY=0;entryDx=0;entryDy=0;fillColor=#1ba1e2;strokeColor=#006EAF;" parent="1" source="KyNgDCiQDorarltKWVj6-31" target="KyNgDCiQDorarltKWVj6-37" edge="1">
          <mxGeometry relative="1" as="geometry" />
        </mxCell>
        <mxCell id="KyNgDCiQDorarltKWVj6-30" value="查询支付状态" style="edgeLabel;html=1;align=center;verticalAlign=middle;resizable=0;points=[];" parent="KyNgDCiQDorarltKWVj6-29" vertex="1" connectable="0">
          <mxGeometry x="-0.1727" relative="1" as="geometry">
            <mxPoint as="offset" />
          </mxGeometry>
        </mxCell>
        <mxCell id="KyNgDCiQDorarltKWVj6-31" value="" style="rounded=1;whiteSpace=wrap;html=1;fillColor=#fff2cc;strokeColor=#d6b656;" parent="1" vertex="1">
          <mxGeometry x="145" y="367" width="20" height="60" as="geometry" />
        </mxCell>
        <mxCell id="KyNgDCiQDorarltKWVj6-32" value="创建订单" style="edgeStyle=orthogonalEdgeStyle;rounded=0;orthogonalLoop=1;jettySize=auto;html=1;entryX=1;entryY=0.75;entryDx=0;entryDy=0;fillColor=#1ba1e2;strokeColor=#006EAF;" parent="1" target="KyNgDCiQDorarltKWVj6-8" edge="1">
          <mxGeometry x="0.1429" y="10" relative="1" as="geometry">
            <mxPoint x="165" y="167" as="sourcePoint" />
            <Array as="points">
              <mxPoint x="165" y="167" />
              <mxPoint x="190" y="167" />
              <mxPoint x="190" y="195" />
            </Array>
            <mxPoint as="offset" />
          </mxGeometry>
        </mxCell>
        <mxCell id="KyNgDCiQDorarltKWVj6-33" style="edgeStyle=none;rounded=0;orthogonalLoop=1;jettySize=auto;html=1;exitX=1;exitY=0;exitDx=0;exitDy=0;entryX=0;entryY=0;entryDx=0;entryDy=0;fillColor=#1ba1e2;strokeColor=#006EAF;" parent="1" source="KyNgDCiQDorarltKWVj6-37" target="KyNgDCiQDorarltKWVj6-42" edge="1">
          <mxGeometry relative="1" as="geometry" />
        </mxCell>
        <mxCell id="KyNgDCiQDorarltKWVj6-34" value="查询状态" style="edgeLabel;html=1;align=center;verticalAlign=middle;resizable=0;points=[];" parent="KyNgDCiQDorarltKWVj6-33" vertex="1" connectable="0">
          <mxGeometry x="0.019" y="-1" relative="1" as="geometry">
            <mxPoint as="offset" />
          </mxGeometry>
        </mxCell>
        <mxCell id="KyNgDCiQDorarltKWVj6-35" style="rounded=0;orthogonalLoop=1;jettySize=auto;html=1;exitX=0;exitY=1;exitDx=0;exitDy=0;fillColor=#1ba1e2;strokeColor=#006EAF;" parent="1" source="KyNgDCiQDorarltKWVj6-37" edge="1">
          <mxGeometry relative="1" as="geometry">
            <mxPoint x="155" y="517" as="targetPoint" />
            <mxPoint x="380" y="517" as="sourcePoint" />
          </mxGeometry>
        </mxCell>
        <mxCell id="KyNgDCiQDorarltKWVj6-36" value="响应支付状态" style="edgeLabel;html=1;align=center;verticalAlign=middle;resizable=0;points=[];" parent="KyNgDCiQDorarltKWVj6-35" vertex="1" connectable="0">
          <mxGeometry x="-0.0213" y="-3" relative="1" as="geometry">
            <mxPoint y="3" as="offset" />
          </mxGeometry>
        </mxCell>
        <mxCell id="KyNgDCiQDorarltKWVj6-37" value="" style="rounded=1;whiteSpace=wrap;html=1;fillColor=#d5e8d4;strokeColor=#82b366;" parent="1" vertex="1">
          <mxGeometry x="385" y="427" width="20" height="90" as="geometry" />
        </mxCell>
        <mxCell id="KyNgDCiQDorarltKWVj6-38" style="rounded=0;orthogonalLoop=1;jettySize=auto;html=1;exitX=0;exitY=0.25;exitDx=0;exitDy=0;entryX=1;entryY=0.25;entryDx=0;entryDy=0;fillColor=#1ba1e2;strokeColor=#006EAF;" parent="1" source="KyNgDCiQDorarltKWVj6-42" target="KyNgDCiQDorarltKWVj6-37" edge="1">
          <mxGeometry relative="1" as="geometry">
            <mxPoint x="615" y="449" as="sourcePoint" />
            <mxPoint x="410" y="454" as="targetPoint" />
          </mxGeometry>
        </mxCell>
        <mxCell id="KyNgDCiQDorarltKWVj6-39" value="响应结果" style="edgeLabel;html=1;align=center;verticalAlign=middle;resizable=0;points=[];" parent="KyNgDCiQDorarltKWVj6-38" vertex="1" connectable="0">
          <mxGeometry x="-0.181" y="1" relative="1" as="geometry">
            <mxPoint x="-19" as="offset" />
          </mxGeometry>
        </mxCell>
        <mxCell id="KyNgDCiQDorarltKWVj6-40" style="edgeStyle=none;rounded=0;orthogonalLoop=1;jettySize=auto;html=1;dashed=1;exitX=0;exitY=0.75;exitDx=0;exitDy=0;fillColor=#fa6800;strokeColor=#C73500;entryX=1;entryY=0.75;entryDx=0;entryDy=0;" parent="1" source="KyNgDCiQDorarltKWVj6-42" target="KyNgDCiQDorarltKWVj6-37" edge="1">
          <mxGeometry relative="1" as="geometry">
            <mxPoint x="405" y="497" as="targetPoint" />
            <mxPoint x="605" y="497" as="sourcePoint" />
          </mxGeometry>
        </mxCell>
        <mxCell id="KyNgDCiQDorarltKWVj6-41" value="通知支付结果" style="edgeLabel;html=1;align=center;verticalAlign=middle;resizable=0;points=[];" parent="KyNgDCiQDorarltKWVj6-40" vertex="1" connectable="0">
          <mxGeometry x="0.1143" y="-2" relative="1" as="geometry">
            <mxPoint x="12" as="offset" />
          </mxGeometry>
        </mxCell>
        <mxCell id="KyNgDCiQDorarltKWVj6-42" value="" style="rounded=1;whiteSpace=wrap;html=1;fillColor=#f8cecc;strokeColor=#b85450;" parent="1" vertex="1">
          <mxGeometry x="615" y="428" width="20" height="89" as="geometry" />
        </mxCell>
        <mxCell id="KyNgDCiQDorarltKWVj6-43" value="更新状态" style="edgeStyle=none;rounded=0;orthogonalLoop=1;jettySize=auto;html=1;exitX=0;exitY=0.25;exitDx=0;exitDy=0;entryX=0;entryY=0.75;entryDx=0;entryDy=0;fillColor=#1ba1e2;strokeColor=#006EAF;" parent="1" source="KyNgDCiQDorarltKWVj6-37" target="KyNgDCiQDorarltKWVj6-37" edge="1">
          <mxGeometry relative="1" as="geometry">
            <Array as="points">
              <mxPoint x="350" y="450" />
              <mxPoint x="350" y="495" />
            </Array>
          </mxGeometry>
        </mxCell>
      </root>
    </mxGraphModel>
  </diagram>
</mxfile>
